<?xml version="1.0" standalone="no"?>
<!DOCTYPE svg PUBLIC "-//W3C//DTD SVG 20010904//EN"
 "http://www.w3.org/TR/2001/REC-SVG-20010904/DTD/svg10.dtd">
<svg version="1.0" xmlns="http://www.w3.org/2000/svg"
 width="1920.000000pt" height="1260.000000pt" viewBox="0 0 1920.000000 1260.000000"
 preserveAspectRatio="xMidYMid meet">

<g transform="translate(0.000000,1260.000000) scale(0.100000,-0.100000)"
fill="#000000" stroke="none">
<path d="M0 8590 l0 -4010 941 0 c543 0 968 4 1007 10 277 39 315 42 449 36
296 -12 471 -24 538 -35 70 -12 347 -22 1060 -41 l379 -11 41 31 c94 70 124
82 210 87 77 5 86 4 161 -30 96 -42 97 -43 204 -62 50 -8 147 -15 235 -15 83
0 205 -7 270 -15 179 -22 1197 -22 1275 0 100 29 175 44 211 45 20 0 79 11
131 24 197 52 460 72 575 46 184 -43 224 -44 1134 -45 481 -1 881 -5 887 -9 6
-3 69 -11 140 -16 70 -5 141 -14 158 -21 16 -6 112 -15 214 -18 119 -5 193
-11 208 -20 13 -7 35 -11 50 -9 22 2 28 9 30 32 5 42 -32 263 -75 446 -43 185
-60 401 -72 955 -8 356 -7 422 5 436 29 32 104 60 186 69 46 5 108 14 137 20
29 5 123 14 209 20 86 6 226 15 310 21 84 5 223 9 310 9 86 -1 256 0 377 3
1587 36 2602 29 3625 -23 227 -12 332 -28 474 -73 80 -26 142 -81 152 -136 7
-34 0 -258 -12 -389 -6 -62 -4 -75 11 -92 31 -34 74 -24 227 55 105 54 340
115 445 115 102 0 283 -43 350 -83 32 -19 78 -46 103 -60 25 -15 65 -47 89
-72 25 -25 48 -45 52 -45 16 0 127 -169 162 -245 42 -93 57 -179 57 -328 0
-86 -5 -121 -31 -208 -17 -57 -40 -117 -51 -133 -38 -53 -106 -193 -99 -204 3
-6 28 -16 55 -22 76 -17 311 12 380 47 42 21 552 14 646 -9 158 -40 237 -48
454 -48 l216 0 0 4015 0 4015 -9600 0 -9600 0 0 -4010z"/>
<path d="M16660 5675 c-65 -18 -150 -60 -217 -109 -67 -48 -124 -157 -193
-366 -44 -134 -74 -176 -148 -205 -23 -10 -47 -26 -53 -36 -5 -11 -14 -59 -20
-107 -5 -48 -21 -127 -35 -175 -13 -48 -22 -92 -19 -98 4 -6 99 -7 258 -3 139
3 353 7 477 8 202 2 233 5 301 25 72 22 82 28 157 105 89 90 139 173 178 294
42 134 34 210 -44 410 -31 79 -120 160 -241 219 l-96 47 -125 3 c-88 2 -141
-2 -180 -12z"/>
</g>
</svg>
